<?xml version="1.0" encoding="utf-8"?>
<!-- Generator: Adobe Illustrator 23.0.6, SVG Export Plug-In . SVG Version: 6.00 Build 0)  -->
<svg version="1.1" id="Layer_1" xmlns="http://www.w3.org/2000/svg" xmlns:xlink="http://www.w3.org/1999/xlink" x="0px" y="0px"
	 viewBox="0 0 600 800" style="enable-background:new 0 0 600 800;" xml:space="preserve">
<style type="text/css">
	.st0{fill:#FFFFFF;}
	.st1{fill:#FFFFFF;stroke:#000000;stroke-miterlimit:10;}
	.st2{fill:none;stroke:#FFFFFF;stroke-width:3;stroke-miterlimit:10;}
	.st3{fill:url(#SVGID_1_);stroke:url(#SVGID_2_);stroke-miterlimit:10;}
	.st4{fill:url(#SVGID_3_);stroke:url(#SVGID_4_);stroke-miterlimit:10;}
	.st5{fill:#FFFFFF;stroke:#FFFFFF;stroke-miterlimit:10;}
</style>

<g>
	<path class="st0" d="M218.53,224.5c-11.7,17.82-19.03,38.23-21.43,59.05c-1.23,10.41-1.26,20.92-0.24,31.28
		c0.12,1.3,0.28,2.59,0.44,3.88c0.17,1.3,0.33,2.58,0.54,3.77c0.45,2.49,0.99,5.06,1.6,7.55c1.23,5.01,2.76,9.93,4.59,14.72
		c1.82,4.8,3.98,9.3,6.46,13.93c2.46,4.63,5.22,9.69,7.21,15.08c2.02,5.37,3.44,11,4.41,16.59c0.96,5.6,1.47,11.13,1.94,16.47
		l0.35,4.08c0.12,1.39,0.2,2.79,0.27,4.19c0.1,2.8,0.21,5.6,0.06,8.39l-0.53,8.36l-0.37,4.17l-0.48,4.15
		c-1.42,11.06-3.97,21.94-7.54,32.44l-0.13,0.38l-0.11,0.24c-6.86,14.65-15.57,28.44-26.08,40.67
		c-10.51,12.24-22.7,22.91-35.99,31.81l-2.48,1.68c-0.84,0.54-1.7,1.04-2.55,1.57l-5.12,3.1c-3.52,1.89-6.96,3.89-10.58,5.55
		c-3.55,1.8-7.23,3.31-10.87,4.88c-3.71,1.42-7.39,2.88-11.16,4.09c-15,5.06-30.57,8.06-46.16,9.42L64.44,575
		c7.69-1.32,15.29-3.01,22.74-5.16c7.45-2.16,14.76-4.73,21.87-7.72c3.57-1.45,7.04-3.14,10.51-4.79c3.41-1.79,6.84-3.51,10.12-5.5
		c3.36-1.86,6.52-4.03,9.76-6.05l4.68-3.31c0.78-0.56,1.56-1.09,2.33-1.66l2.25-1.77c1.49-1.18,3.01-2.34,4.48-3.54l4.3-3.75
		l2.14-1.88l2.07-1.97l2.06-1.97c0.68-0.66,1.33-1.35,2-2.03c5.34-5.41,10.26-11.19,14.84-17.2c4.56-6.03,8.79-12.29,12.63-18.78
		c3.81-6.51,7.21-13.24,10.2-20.15l-0.24,0.62c3.1-9.8,5.56-19.79,6.82-29.94c0.61-5.07,1.12-10.17,0.99-15.27
		c-0.02-2.55,0.03-5.09-0.05-7.63c-0.03-1.27-0.06-2.54-0.12-3.82l-0.09-1.92l-0.12-2c-0.33-5.32-0.68-10.45-1.4-15.41
		c-0.73-4.96-1.84-9.76-3.41-14.46c-1.5-4.73-3.45-9.3-5.68-14.26c-2.22-4.96-4.31-10.29-5.89-15.62c-1.6-5.33-2.86-10.74-3.79-16.2
		c-0.46-2.74-0.83-5.45-1.13-8.24c-0.15-1.46-0.21-2.84-0.29-4.2c-0.07-1.37-0.13-2.74-0.16-4.11c-0.28-10.96,0.56-21.94,2.63-32.65
		c4.07-21.44,13.16-41.73,26.22-58.76L218.53,224.5z"/>
</g>
<g>
	<path class="st0" d="M211.17,224.7c-10.19,1.93-19.98,5.49-28.92,10.46c-4.47,2.49-8.72,5.32-12.71,8.46
		c-1.99,1.57-3.92,3.22-5.77,4.94c-0.93,0.87-1.82,1.72-2.75,2.64l-1.4,1.37c-0.44,0.44-0.88,0.88-1.31,1.33
		c-6.87,7.18-11.98,15.88-14.72,25.22c-2.76,9.31-3.25,19.23-1.54,28.62l-0.08-0.46c3.07,11.66,5,23.67,5.75,35.8
		c0.37,6.06,0.45,12.14,0.23,18.25c-0.23,6.12-0.81,12.26-1.72,18.34c-0.91,6.09-2.18,12.15-3.71,18.06
		c-0.76,2.97-1.56,5.82-2.38,8.71c-0.85,2.93-1.71,5.86-2.78,8.71c-1.06,2.86-2.34,5.63-3.67,8.37c-1.32,2.74-2.7,5.46-4.13,8.14
		c-2.84,5.37-5.92,10.6-9.15,15.72l0.46-0.96c-4.45,9.66-9.7,18.91-15.68,27.6c-5.98,8.69-12.75,16.78-20.09,24.21
		c-3.67,3.72-7.48,7.28-11.45,10.63c-3.96,3.37-8.04,6.57-12.28,9.53c-8.46,5.95-17.35,11.18-26.61,15.54l-0.49-0.87
		c8.5-5.59,16.53-11.79,23.92-18.61c7.37-6.84,14.22-14.16,20.28-22.05c6.1-7.85,11.45-16.21,16.09-24.88
		c4.65-8.67,8.51-17.71,11.59-26.95l0.02-0.05l0.44-0.9c2.47-5.08,4.77-10.23,6.84-15.46c1.04-2.61,2.03-5.24,2.96-7.89
		c0.93-2.65,1.81-5.3,2.79-7.92c0.98-2.62,2.06-5.2,3.04-7.82c1.01-2.66,1.99-5.37,2.9-8c1.82-5.28,3.38-10.57,4.63-15.97
		c1.26-5.4,2.21-10.86,2.86-16.39c0.64-5.54,1.02-11.15,1.12-16.77c0.21-11.24-0.69-22.53-2.7-33.68l-0.08-0.45l0,0
		c-1.12-11.23,0.4-22.6,4.4-32.98c3.98-10.39,10.51-19.64,18.65-26.88c0.51-0.46,1.03-0.9,1.54-1.34l1.5-1.25
		c0.98-0.84,2.05-1.71,3.1-2.53c2.11-1.65,4.28-3.21,6.51-4.68c4.46-2.94,9.14-5.51,13.98-7.7c9.68-4.35,19.99-7.12,30.41-8.19
		L211.17,224.7z"/>
</g>
<path class="st2" d="M361.5,77.5c23.78,18.01,43.84,27.27,56.02,34.22c22.68,12.93,47.02,27.11,47.03,27.11l2,1
	c0.06,0.03,46.29,17.74,89.96,46.67c0.71,0.47,1.41,0.99,1.41,0.99c2.42,1.79,6.64,5.39,9.59,11.01c3.17,6.04,3.05,10.92,3,12
	c0,0-2.43,4.3-3,10c-0.66,6.59-12.63,24.8-13.45,25.99c-20.6,29.7-26.04,30.68-35.87,43.43c-8.7,11.29-20.69,25.58-20.69,25.58
	s0,0,0,0c-19.72,25.21-23.51,32.16-37,50c-6.18,8.18-17.53,31.89-26,45c-16.41,25.41-24,64.38-24,78c0,10.16-4.92,27.98-5.45,44.46
	c-0.44,13.48-5.71,38.43-7.83,61.79c-1.1,12.13-3.88,50.42-6.72,67.74"/>
<g>
	<radialGradient id="SVGID_1_" cx="246.7424" cy="101.6549" r="117.0652" gradientUnits="userSpaceOnUse">
		<stop  offset="0" style="stop-color:#FF7BAC;stop-opacity:0"/>
		<stop  offset="0.4669" style="stop-color:#E6849A;stop-opacity:0.3431"/>
		<stop  offset="0.8164" style="stop-color:#D08B8B;stop-opacity:0.6"/>
	</radialGradient>
	<radialGradient id="SVGID_2_" cx="256.5849" cy="111.1874" r="75.3396" gradientUnits="userSpaceOnUse">
		<stop  offset="0" style="stop-color:#FF7BAC;stop-opacity:0"/>
		<stop  offset="0.1857" style="stop-color:#FF94BC;stop-opacity:0.1365"/>
		<stop  offset="0.5788" style="stop-color:#FFD5E5;stop-opacity:0.4254"/>
		<stop  offset="0.8164" style="stop-color:#FFFFFF;stop-opacity:0.6"/>
	</radialGradient>
	<path class="st3" d="M350.5,132.5l-21-65c-18.2-3.81-47.2-7.54-82-2c-39.41,6.28-68.51,21.63-85,32l6,62
		c25.38-8.94,57.4-17.85,95-23C296.5,131.98,325.98,131.41,350.5,132.5z"/>
	<radialGradient id="SVGID_3_" cx="276.5292" cy="164.9521" r="141.3701" gradientUnits="userSpaceOnUse">
		<stop  offset="0" style="stop-color:#FF7BAC;stop-opacity:0"/>
		<stop  offset="0.4675" style="stop-color:#E6849A;stop-opacity:0.3431"/>
		<stop  offset="0.8175" style="stop-color:#D08B8B;stop-opacity:0.6"/>
	</radialGradient>
	<radialGradient id="SVGID_4_" cx="281.1751" cy="176.9145" r="106.372" gradientUnits="userSpaceOnUse">
		<stop  offset="0" style="stop-color:#FF7BAC;stop-opacity:0"/>
		<stop  offset="0.1857" style="stop-color:#FF94BC;stop-opacity:0.1365"/>
		<stop  offset="0.5788" style="stop-color:#FFD5E5;stop-opacity:0.4254"/>
		<stop  offset="0.8164" style="stop-color:#FFFFFF;stop-opacity:0.6"/>
	</radialGradient>
	<path class="st4" d="M168.5,159.5c-2.67,8.47-6.48,18.38-12,29c-5.9,11.35-12.27,20.66-18,28c51.45,6.66,123.97,9.01,206-12
		c5.16-1.32,10.23-2.7,15.2-4.14c23.47-6.76,44.76-14.65,63.8-22.86c-11.57-4.79-24.89-11.24-39-20c-13.52-8.39-24.82-17.07-34-25"
		/>
	<animate attributeName="opacity" dur="10s" keyTimes="0;0.1;0.5;0.6;1" values="0;1;1;0;0" repeatCount="indefinite"/>
</g>
<g>
	<path class="st5" d="M509.98,216.26c-0.09-0.55-0.42-1.04-1.16-2.01c-0.11-0.14-0.2-0.27-0.26-0.35l-0.13-0.29l-4.69-3.32
		l-0.12-0.07c-0.31-0.18-31.54-18.32-63.05-40.41c-6.32-4.43-14.08-10.48-23.07-17.49c-14.47-11.28-32.47-25.31-55.14-41.05
		l-1.71,2.46c22.6,15.7,40.57,29.7,55.01,40.96c9.02,7.03,16.81,13.1,23.19,17.58c16.34,11.46,32.67,21.87,43.49,28.59
		c1.79,1.11,16.05,9.95,19.71,11.82l-0.05,0.07l4.13,2.92c0.08,0.11,0.17,0.24,0.3,0.4c0.16,0.21,0.47,0.62,0.61,0.84
		c0,0.04,0.01,0.09,0.01,0.13c-0.14,0.14-0.3,0.32-0.47,0.49c-0.33,0.35-0.67,0.7-0.86,0.91c-0.29,0.22-1.16,0.91-2.41,1.84
		c-11.19,8.41-19.93,17.3-28.38,25.9c-4.56,4.64-8.87,9.02-13.45,13.22c-10.17,9.34-18.28,18.79-26.86,28.79
		c-4.78,5.57-9.72,11.33-15.2,17.27c-0.18,0.18-3.43,3.43-3.91,3.91c-0.77,0.6-1.64,1.52-2.72,2.69c-1.94,2.09-4.6,4.94-8.03,7.13
		c-2.83,1.33-5.69,2.86-8.52,4.55c-0.45,0.27-0.76,0.46-0.99,0.6l-0.27,0.17c-2.92,1.76-7.11,2.93-12.46,3.48
		c-3.44-0.49-12.22-1.9-14.43-2.86c-3.07-1.34-6.78-1.43-10.37-1.51c-1.78-0.04-3.47-0.08-5.02-0.27l10.48-22.01l-16.03,3.7
		l0.67,2.92l9.97-2.3L349.55,323H228.43v3h121.94c2.25,0.5,4.81,0.56,7.29,0.62c3.3,0.07,6.7,0.15,9.23,1.25
		c3.03,1.33,14.13,2.93,15.39,3.11l0.18,0.03l0.18-0.02c5.88-0.59,10.55-1.91,13.88-3.92l0.29-0.18c0.22-0.14,0.52-0.32,0.97-0.59
		c2.77-1.65,5.58-3.15,8.34-4.45l0.17-0.09c3.79-2.4,6.62-5.45,8.69-7.67c0.98-1.05,1.82-1.96,2.4-2.39
		c0.21-0.16,4.18-4.16,4.21-4.19c5.54-6.01,10.5-11.79,15.3-17.38c8.52-9.93,16.57-19.31,26.61-28.53
		c4.63-4.25,8.97-8.66,13.56-13.33c8.38-8.52,17.04-17.32,28.05-25.6c1.56-1.18,2.56-1.96,2.56-1.96l0.21-0.2
		c0.13-0.15,0.5-0.54,0.87-0.92c0.38-0.4,0.75-0.8,0.87-0.94l0.27-0.31l0.07-0.41C510.07,217.38,510.07,216.81,509.98,216.26z"/>
	<path class="st5" d="M285.51,314c10.34-0.08,20.77-0.41,31-1c5.42,0.2,10.88-0.14,16.23-1.02c4.45-0.73,6.81-1.76,9.31-2.85
		c0.93-0.4,1.88-0.82,2.98-1.23l0.57-0.21l0.26-0.55c1.14-2.41,2.41-4.96,3.75-7.65c5.63-11.33,12.64-25.42,16.36-41.65
		c3.63-15.81,5.66-32.06,6.04-48.3l-3-0.07c-0.37,16.03-2.38,32.08-5.96,47.7c-3.64,15.88-10.56,29.8-16.12,40.99
		c-1.25,2.51-2.43,4.89-3.51,7.16c-0.93,0.36-1.75,0.72-2.55,1.07c-2.42,1.05-4.51,1.96-8.6,2.64c-5.17,0.85-10.46,1.18-15.7,0.98
		l-0.07,0l-0.07,0c-10.21,0.58-20.61,0.92-30.93,1c-14.06,0.1-37.82-0.84-49.85-1.99l-0.29,2.99c11.48,1.1,33.58,2.02,47.9,2.02
		C284.03,314.01,284.78,314.01,285.51,314z"/>
</g>
<path class="st0" d="M417.05,758.89c-2.19-8.11-3.97-16.38-5.69-24.37c-1.88-8.72-3.82-17.73-6.3-26.61
	c-2.22-7.94-5.03-15.99-7.75-23.77c-2.39-6.86-4.87-13.93-6.92-20.9L286.5,670l-0.1-0.01l-111-7l0.19-2.99L286.5,667l106.1-6.92
	l0.33,1.16c2.09,7.26,4.69,14.7,7.2,21.9c2.73,7.83,5.56,15.92,7.8,23.96c2.51,8.97,4.46,18.03,6.35,26.79
	c1.72,7.96,3.49,16.19,5.66,24.22L417.05,758.89z"/>
</svg>
