<?xml version="1.0" encoding="utf-8"?>
<!-- Generator: Adobe Illustrator 23.0.6, SVG Export Plug-In . SVG Version: 6.00 Build 0)  -->
<svg version="1.1" id="Layer_1" xmlns="http://www.w3.org/2000/svg" xmlns:xlink="http://www.w3.org/1999/xlink" x="0px" y="0px"
	 viewBox="0 0 1920 1080" style="enable-background:new 0 0 1920 1080;" xml:space="preserve">
<style type="text/css">
	.st0{fill:#FFFFFF;}
	.st1{fill:#FFFFFF;stroke:#000000;stroke-miterlimit:10;}
	.st2{fill:url(#SVGID_1_);stroke:#000000;stroke-miterlimit:10;}
	.st3{fill:url(#SVGID_2_);stroke:#000000;stroke-miterlimit:10;}
</style>
<g>
	<path class="st0" d="M449.12,393.21c-5.02,7.1-10.23,15.85-14.62,26.29c-6.07,14.42-9,28.3-10.21,40.54
		c-1.24,12.6-0.66,23.48,0.21,31.46c0.7,5.14,2.08,12.9,5,22c4.15,12.91,8.22,18.54,12,28c5.44,13.61,6.09,24.92,7,37
		c1.01,13.4,0.74,34.77-8,61c-6.81,15.19-20.62,40.46-47,63c-36.84,31.49-77.74,39.43-98,42"/>
	<path d="M449.53,393.5c-12.12,17.52-20.01,37.84-22.95,58.82c-1.5,10.48-1.8,21.12-1.02,31.66c0.2,2.62,0.45,5.3,0.8,7.85
		c0.4,2.58,0.88,5.19,1.44,7.76c1.12,5.14,2.57,10.22,4.32,15.17c1.74,4.96,3.86,9.72,6.26,14.45c2.39,4.74,4.87,9.66,6.73,14.84
		c1.91,5.16,3.28,10.52,4.22,15.92c0.93,5.4,1.43,10.82,1.9,16.15c1.07,10.76,0.99,21.8-0.27,32.62
		c-1.26,10.84-3.62,21.56-7.02,31.91l-0.06,0.18l-0.07,0.16c-6.65,14.47-15.3,27.99-25.5,40.14
		c-10.19,12.17-21.98,22.94-34.97,31.95l-2.42,1.7c-0.82,0.55-1.67,1.06-2.5,1.59l-5.01,3.16c-3.45,1.92-6.82,3.97-10.37,5.69
		c-3.48,1.85-7.1,3.42-10.68,5.06c-3.65,1.49-7.27,3.01-10.99,4.29c-14.8,5.31-30.22,8.72-45.78,10.44l-0.13-0.99
		c15.42-2.23,30.58-6.13,45-11.86c3.62-1.38,7.14-3.01,10.68-4.59c3.47-1.73,6.96-3.39,10.32-5.32c3.43-1.8,6.66-3.92,9.97-5.91
		l4.79-3.25c0.79-0.55,1.6-1.08,2.39-1.64l2.31-1.74c12.37-9.22,23.49-20.06,32.92-32.19c4.73-6.06,9.03-12.43,12.96-19.01
		c3.89-6.61,7.35-13.46,10.45-20.45l-0.13,0.34c3.26-9.94,5.92-20.1,7.34-30.47c1.47-10.38,1.81-20.82,1.03-31.36
		c-0.33-5.33-0.69-10.57-1.45-15.73c-0.76-5.15-1.92-10.21-3.6-15.12c-1.63-4.93-3.85-9.64-6.16-14.5c-2.31-4.86-4.43-9.93-6.1-15.1
		c-1.68-5.17-3.04-10.43-4.06-15.75c-0.51-2.67-0.94-5.33-1.29-8.04c-0.31-2.76-0.48-5.41-0.63-8.12
		c-0.53-10.79,0.05-21.63,1.84-32.27c3.53-21.28,12.05-41.66,24.7-59L449.53,393.5z"/>
</g>
<g>
	<path class="st0" d="M433.1,393.21c-7.38,1.08-17.99,3.49-29.6,9.29c-10.29,5.14-17.89,11.22-23,16c-4.53,3.96-11.87,11.43-17,23
		c-6.92,15.63-5.86,29.77-5,36c1.74,7.81,3.37,17.62,4,29c0.83,15.17-0.47,26.79-1,31c-1.9,15.01-5.38,25.93-8,34
		c-3.54,10.91-9.1,25.16-18,41c-4.87,12.26-12.85,28.42-26,45c-18.62,23.48-39.34,37.36-53,45"/>
	<path d="M433.17,393.7c-10.23,1.62-20.17,4.91-29.33,9.64c-4.58,2.37-8.96,5.11-13.1,8.17c-2.07,1.53-4.07,3.15-6.01,4.84
		c-0.97,0.85-1.92,1.7-2.86,2.59c-0.96,0.9-1.92,1.75-2.82,2.65c-7.28,7.16-12.86,16-16.02,25.65c-3.18,9.63-4.03,20-2.54,29.99
		l-0.03-0.16c2.7,11.5,4.26,23.29,4.67,35.12c0.4,11.82-0.29,23.74-2.38,35.46c-1.03,5.85-2.4,11.66-4.05,17.35
		c-0.84,2.85-1.7,5.65-2.63,8.45c-0.93,2.81-1.92,5.6-2.96,8.37c-1.04,2.77-2.14,5.52-3.29,8.25c-1.13,2.74-2.29,5.46-3.54,8.15
		c-2.45,5.39-5.24,10.62-8.16,15.77l0.17-0.36c-3.86,9.6-8.65,18.82-14.16,27.55c-5.53,8.73-11.88,16.91-18.83,24.51
		c-3.48,3.8-7.09,7.46-10.91,10.91c-3.8,3.46-7.72,6.78-11.8,9.89c-8.13,6.25-16.83,11.72-25.86,16.47l-0.49-0.87
		c8.72-5.2,16.95-11.16,24.67-17.68c3.87-3.25,7.56-6.71,11.11-10.28c3.56-3.57,6.97-7.28,10.2-11.14
		c6.49-7.69,12.27-15.95,17.35-24.59c5.11-8.63,9.43-17.7,13.1-27l0.07-0.17l0.11-0.19c2.78-5.05,5.37-10.2,7.83-15.41
		c1.23-2.61,2.43-5.23,3.55-7.88c1.11-2.66,2.17-5.34,3.17-8.04c1-2.7,1.96-5.42,2.86-8.16c0.89-2.75,1.82-5.51,2.65-8.26
		c1.7-5.5,3.16-11.04,4.29-16.67c2.28-11.25,3.22-22.76,3.09-34.3c-0.13-11.53-1.39-23.05-3.77-34.36l-0.02-0.1l-0.01-0.06
		c-1.34-10.64-0.18-21.55,3.4-31.62c3.56-10.07,9.62-19.19,17.35-26.45c0.96-0.92,1.98-1.77,2.93-2.63
		c0.96-0.87,1.97-1.74,2.98-2.58c2.03-1.68,4.12-3.28,6.28-4.79c4.31-3.02,8.86-5.69,13.58-7.99c9.46-4.58,19.62-7.64,30-9.01
		L433.17,393.7z"/>
</g>
<path class="st1" d="M642.5,873.5"/>
<path class="st1" d="M568.5,239.5c23.78,18.01,43.84,27.27,56.02,34.22c22.68,12.93,47.02,27.11,47.03,27.11l2,1
	c0.06,0.03,46.29,17.74,89.96,46.67c0.71,0.47,1.41,0.99,1.41,0.99c2.42,1.79,6.64,5.39,9.59,11.01c3.17,6.04,3.05,10.92,3,12
	c0,0-2.43,4.3-3,10c-0.66,6.59-12.63,24.8-13.45,25.99c-20.6,29.7-26.04,30.68-35.87,43.43c-8.7,11.29-20.69,25.58-20.69,25.58
	s0,0,0,0c-19.72,25.21-23.51,32.16-37,50c-6.18,8.18-17.53,31.89-26,45c-16.41,25.41-24,64.38-24,78c0,10.16-4.92,27.98-5.45,44.46
	c-0.44,13.48-5.71,38.43-7.83,61.79c-1.1,12.13-3.88,50.42-6.72,67.74"/>
<path class="st1" d="M556.5,487.5c5.08,1.2,12.15-0.12,17,2c2.93,1.28,15,3,15,3c6.96-0.7,10.91-2.29,13.26-3.71
	c0.24-0.15,0.6-0.37,1.26-0.77c3.56-2.12,6.5-3.6,8.48-4.52c5.51-3.5,8.99-8.5,11-10c0.03-0.02,3.97-3.97,4-4
	c15.36-16.67,26.22-31.51,42-46c13.18-12.1,24.66-26.19,41.72-39.02c1.55-1.16,2.53-1.94,2.53-1.94c0.26-0.3,1.51-1.59,1.74-1.86
	c0.05-0.28,0.09-0.69,0.01-1.18c-0.06-0.37-1.17-1.68-1.27-1.9c-1.45-1.03-2.91-2.06-4.36-3.09c0,0-31.58-18.33-63.16-40.48
	c-16.32-11.45-41.16-32.81-78.21-58.54"/>
<g>
	<radialGradient id="SVGID_1_" cx="463.7423" cy="266.6549" r="117.0652" gradientUnits="userSpaceOnUse">
		<stop  offset="0" style="stop-color:#FF7BAC;stop-opacity:0"/>
		<stop  offset="0.4669" style="stop-color:#E6849A;stop-opacity:0.3431"/>
		<stop  offset="0.8164" style="stop-color:#D08B8B;stop-opacity:0.6"/>
	</radialGradient>
	<path class="st2" d="M567.5,297.5l-21-65c-18.2-3.81-47.2-7.54-82-2c-39.41,6.28-68.51,21.63-85,32l6,62
		c25.38-8.94,57.4-17.85,95-23C513.5,296.98,542.98,296.41,567.5,297.5z"/>
	<radialGradient id="SVGID_2_" cx="493.5292" cy="329.9521" r="141.3701" gradientUnits="userSpaceOnUse">
		<stop  offset="0" style="stop-color:#FF7BAC;stop-opacity:0"/>
		<stop  offset="0.4675" style="stop-color:#E6849A;stop-opacity:0.3431"/>
		<stop  offset="0.8175" style="stop-color:#D08B8B;stop-opacity:0.6"/>
	</radialGradient>
	<path class="st3" d="M385.5,324.5c-2.67,8.47-6.48,18.38-12,29c-5.9,11.35-12.27,20.66-18,28c51.45,6.66,123.97,9.01,206-12
		c5.16-1.32,10.23-2.7,15.2-4.14c23.47-6.76,44.76-14.65,63.8-22.86c-11.57-4.79-24.89-11.24-39-20c-13.52-8.39-24.82-17.07-34-25"
		/>
</g>
<path class="st1" d="M553.5,469.5c4.33-1,8.67-2,13-3c-3.33,7-6.67,14-10,21H434.43"/>
<path class="st1" d="M441.5,473.5c12.72,1.22,36.45,2.1,50,2c12.57-0.1,23.16-0.55,31-1c4.39,0.17,9.84,0.01,16-1
	c5.94-0.98,7.99-2.5,12-4c6-12.67,15.45-29.15,20-49c4.21-18.33,5.69-34.72,6-48"/>
<path class="st1" d="M381.5,824.5l111,7l105-6.84c4.37,15.16,10.7,30.44,15,45.84c4.78,17.11,7.44,34.11,12,51"/>
</svg>
